<?xml version="1.0" encoding="UTF-8"?>
<svg viewBox="0 -5 800 150" version="1.1" xmlns="http://www.w3.org/2000/svg" xmlns:xlink="http://www.w3.org/1999/xlink">
<g fill="none" stroke="#000" stroke-width="2" stroke-linecap="round" stroke-linejoin="round" >
  <path d="M0.5,20.6 L3.8,20.7 L7.0,23.5 L10.6,26.7 L13.4,30.1 L16.5,34.5 L19.2,39.0 L21.2,42.8 L22.8,46.6 L24.1,50.1 L25.2,54.1 L25.8,58.7 L25.9,63.0 L25.5,67.3 L24.4,71.3 L22.8,75.3 L20.9,78.6 L18.4,81.8 L15.9,83.8 L12.9,84.1 L9.9,82.1 L7.5,78.9 L5.9,74.7 L4.3,69.9 L3.6,66.0 L3.1,61.5 L2.6,56.5 L2.3,51.1 L2.7,45.2 L3.3,40.6 L4.6,33.2 L6.9,26.9 L9.3,21.8 L12.3,16.7 L15.6,12.5 L19.3,9.6 L24.9,6.4 L31.2,4.2 L36.8,3.1 L41.9,3.0 L46.2,3.6 L50.5,5.6 L54.3,8.5 L56.7,12.2 L57.5,16.4 L57.9,21.7 L57.1,26.3 L55.7,30.1 L53.0,35.2 L50.0,39.3 L47.6,42.2 L43.7,45.7 L40.6,48.1 L35.4,50.9 L31.4,52.6 L27.4,53.5 L21.9,53.7 L16.4,53.7 L9.7,53.7 L30.1,54.0 L38.3,50.3 L40.1,54.7 L42.0,59.2 L44,64.9 L45.4,69.0 L47.4,73.8 L49.6,78.1 L52.0,82.8 L54.0,85.4 L56.7,88.3 L58.7,89.8 L61.2,90.7 L63.3,90.4 L65.9,89.3 L67.8,88.2 L61.7,53.9 L65.1,56.7 L66.6,57.9 L68.8,59.4 L70.8,61.0 L73.6,62.6 L75.9,63.3 L79.6,63.6 L83.4,63.6 L87.3,63.4 L91.3,62.6 L95.0,61.2 L98.5,59.4 L101.3,57.9 L104.1,55.3 L106.2,52.6 L107.0,49.2 L106.1,45.4 L103.8,43.4 L100.6,41.7 L98.1,41.5 L95.5,41.5 L91.6,41.6 L88.8,41.9 L86.9,42.9 L84.3,44.3 L81.8,45.9 L78.7,48.1 L76.8,49.9 L74.3,52.4 L71.1,56.4 L69.8,58.4 L68.4,61.6 L67.9,65.4 L67.7,69.6 L67.6,72.8 L68.2,75.2 L69.2,77.8 L71.0,80.0 L73.3,81.7 L75.7,83.4 L78.2,84.1 L82.3,84.3 L86.3,84.3 L91.4,84.2 L96.8,83.2 L101.4,81.4 L106.4,79.0 L111.2,76.2 L114.2,74.2 L117.5,71.7 L120.9,68.9 L124.8,65.0 L127.8,61.3 L130.9,57.7 L134.1,53.9 L135.9,51.3 L137.9,52.9 L140.2,54.5 L140.2,57.6 L139.8,62.3 L139.9,68.3 L140.0,74.0 L140.4,84.6 L139.1,59.0 L139.2,56.5 L144.3,51.9 L146.8,49.2 L150.0,46.4 L153.8,44.2 L158.3,42.0 L162.0,42.1 L164.3,46.0 L165.5,51.0 L165.9,57.9 L166.0,84.1 L166.9,54.4 L168.1,51.8 L170.3,48.9 L172.7,46.4 L176.3,44.1 L179.5,42.3 L182.5,41.5 L186.4,42.0 L189.2,44.8 L190.4,46.8 L191.9,49.9 L192.0,55.7 L192.1,61.2 L192.1,68.0 L191.7,75.0 L192.6,78.1 L193.7,80.3 L195.0,81.8 L196.5,83.0 L198.6,83.8 L202.2,83.9 L205.4,83.0 L210.1,81.0 L214.0,78.0 L219.1,74.1 L224.6,69.3 L226.2,67.0 L228.1,66.8 L231.0,63.2 L235.0,57.4 L239.2,51.6 L242.3,46.2 L243.4,44.4 L240.9,51.9 L239.9,57.8 L238.9,62.7 L238.9,66.2 L238.6,70.4 L239.0,74.0 L239.4,77.5 L239.9,80.5 L241.1,82.7 L243.2,84.2 L246.1,84.5 L250.4,82.8 L254.7,79.9 L259.0,76.5 L263.1,72.9 L266.5,69.1 L268.5,66.9" id="Remi"></path>
<path d="M243.7,31.1 L242.5,32.2 L241.7,33.4 L241.5,34.5 L242.9,34.9 L244.7,34.5 L246.3,33.2 L247.2,31.9 L245.0,30.9 L243.4,30.2 L242.0,30.3 L241.1,30.6 L239.6,31.2" id="dot"></path>
<path d="M376.7,18.4 L375.3,14.6 L372.7,10.9 L369.7,7.3 L366.9,4.9 L363.9,3.0 L360.5,1.5 L356.8,0.4 L353.6,0.5 L350.8,1.1 L348.4,2.6 L346.3,5.0 L344.4,9.0 L343.7,13.3 L343.6,17.6 L344.4,22.4 L346.4,27.3 L348.8,32.0 L351.9,37.0 L356.4,42.4 L360.0,46.7 L363.7,51.2 L367.5,56.4 L370.2,60.3 L372.3,65.1 L373.7,69.5 L373.0,74.8 L371.1,78.4 L367.3,81.4 L363.1,83.7 L357.7,83.6 L350.4,82.8 L345.9,81.1 L340.1,79.2 L336.2,76.9 L332.0,74.2 L327.8,70.7 L325.4,67.1 L324.1,62.8 L325.0,58.8 L327.6,55.2 L331.2,52.9 L335.1,51.1 L340.0,49.9 L345.1,49.1 L350.4,49.0 L353.4,50.4 L355.7,51.6 L358.9,53.9 L361.7,57.0 L377.8,68.2 L380.3,64.7 L383.2,61.0 L387.0,54.9 L390.8,47.0 L394.0,40.0 L397.7,29.6 L398.7,24.2 L399.1,18.7 L398.7,14.8 L397.0,12.4 L393.8,10.9 L390.9,11.0 L388.2,13.0 L387.0,16.7 L385.9,20.8 L384.7,26.5 L383.9,32.5 L383.4,39.7 L383.5,47.2 L383.5,52.1 L383.5,57.7 L384.5,63.1 L384.8,67.3 L385.4,72.3 L386.3,77.6 L387.3,83.6 L389.0,75.7 L390.6,70.4 L392.3,65.5 L394.7,60.6 L397.3,55.4 L399.8,51.4 L403.1,47.8 L406.5,44.5 L409.5,42.5 L413.0,41.9 L416.0,42.9 L418.8,44.6 L421.2,48.4 L422.7,51.9 L423.3,56.5 L423.0,62.3 L423.0,68.7 L422.9,72.8 L423.0,78.2 L423.7,81.1 L426.4,83.6 L429.1,84.8 L433.1,84.5 L437.3,82.7 L441.3,79.5 L445.2,76.5 L447.9,74.0 L450.8,71.1 L453.4,68.6 L455.5,66.5 L451.9,56.1 L453.9,57.8 L455.3,59.1 L457.3,60.3 L459.9,62.0 L463.3,63.1 L467.8,63.6 L471.8,63.6 L476.8,62.7 L481.6,61.3 L486.0,59.2 L489.8,56.2 L492.7,52.6 L493.9,49.5 L493.5,46.3 L491.4,44.1 L488.7,42.2 L485.5,41.8 L480.6,41.8 L476.2,42.2 L472.0,43.5 L468.7,46.2 L465.2,48.8 L462.0,51.9 L459.7,54.7 L456.9,58.5 L455.6,62.0 L454.3,66.0 L454.6,69.8 L454.5,72.3 L454.6,74.9 L456.1,77.4 L458.3,80.6 L461.9,83.1 L466.1,84.5 L470.8,84.7 L476.5,84.7 L480.6,84.2 L486.0,82.3 L492.0,79.7 L497.1,77.0 L501.5,74.3 L505.8,70.7 L509.9,66.9 L514.6,62.8 L519.3,57.8 L523.5,53.4 L526.3,49.4 L527.9,45.0 L529.1,42.0 L530.3,44.5 L532.5,46.6 L534.8,49.0 L537.8,50.7 L540.8,51.6 L544.9,53.3 L542.3,56.4 L540.4,59.0 L538.4,61.9 L537.2,64.9 L536.3,69.0 L536.1,72.4 L535.9,76.2 L536.4,79.3 L538.2,82.2 L540.4,84.1 L542.9,85.4 L546.4,84.7 L550.3,83.1 L553.5,81.0 L557.4,78.2 L560.1,75.4 L564.0,72.8 L566.6,70.1 L568.6,68.1 L571.9,65.2 L574.0,59.2 L576.3,55.4 L579.3,51.5 L582.4,48.7 L586.0,46.2 L590.3,43.8 L593.9,42.8 L600.1,43.3 L604.9,45.7 L607.7,48.6 L609.4,53.0 L607.3,50.4 L605.6,47.7 L602.4,45.5 L597.7,44.1 L593.7,43.9 L589.7,45.1 L585.6,47.5 L582.0,50.1 L578.6,54.2 L575.7,58.1 L573.9,62.8 L571.1,67.1 L571.0,70.3 L571.1,73.9 L571.4,76.3 L572.6,79.1 L574.4,81.7 L576.4,83.4 L579.3,84.6 L583.1,84.7 L585.8,84.6 L588.9,83.0 L592.8,80.6 L595.7,78.3 L599.2,75.1 L601.9,71.7 L604.4,68.5 L606.8,65.0 L608.2,61.7 L609.6,57.8 L609.7,54.4 L608.1,53.2 L606.3,55.8 L604.9,58.3 L603.7,60.5 L602.8,62.5 L601.9,65.8 L602.1,69.2 L602.1,76.3 L602.4,81.0 L603.1,86.6 L603.7,91.6 L604.7,95.8 L606.3,100.2 L607.3,104.8 L608.4,109.2 L609.5,113.6 L609.9,119.5 L609.9,124.5 L609.0,129.5 L605.7,133.6 L602.3,136.1 L598.2,138.2 L593.7,139.5 L587.6,139.4 L582.8,138.7 L579.5,136.6 L576.9,134.0 L575.3,130.9 L574.1,127.9 L574.4,123.2 L574.6,118.5 L575.5,115.4 L577.8,110.9 L581.1,107.3 L584.6,104.1 L588.3,101.1 L592.0,98.4 L596.2,95.7 L600.9,92.4 L605.6,89.2 L609.4,86.4 L614.9,82.5 L620.2,78.6 L626.0,74.2 L630.0,70.7 L633.0,67.7 L633.7,63.5 L635.1,59.5 L637.4,55.5 L640.4,51.1 L644.0,47.2 L646.9,44.4 L650.9,41.9 L653.8,40.6 L660.1,40.7 L665.9,40.6 L657.1,41.7 L652.8,42.1 L649.0,44.1 L646.1,46.3 L642.9,49.8 L639.9,53.8 L637.0,58.0 L635.2,62.0 L634.4,65.7 L633.0,69.6 L633.2,72.4 L633.7,75.1 L635.3,77.7 L637.1,79.7 L639.7,81.6 L643.0,83.3 L645.7,84.2 L648.4,84.8 L652.0,84.9 L654.9,84.7 L659.2,84.2 L662.8,83.1 L667.0,81.0 L669.8,79.3 L674.2,76.6 L676.4,74.6 L678.7,72.1 L680.2,69.5 L681.8,66.2 L682.5,62.5 L682.3,57.6 L680.8,54.9 L679.3,52.1 L677.0,49.1 L674.4,46.5 L671.7,44.7 L669.2,43.1 L667.1,42.0 L663.3,42.0 L661.0,42.3 L658.7,42.9 L657.8,43.9 L657.1,46.5 L657.1,48.6 L658.2,51.3 L690.5,67.3 L692.2,64.8 L694.8,62.1 L697.7,58.6 L700.3,54.9 L703.7,47.7 L706.4,41.6 L709.2,35.2 L710.9,29.6 L712.3,21.5 L711.8,13.8 L710.2,11.3 L707.9,9.9 L705.4,9.9 L703.2,11.0 L701.6,13.2 L700.3,16.3 L699.4,19.8 L697.9,24.4 L697.6,27.6 L697.2,32.3 L697.1,38.7 L697.2,54.1 L698.4,62.0 L698.7,66.8 L699.0,71.7 L700.2,76.1 L702.5,80.3 L704.8,83.0 L709.0,84.3 L714.9,83.0 L719.5,80.0 L723.6,76.3 L727.2,73.7 L730.3,70.3 L733.7,67.1 L734.7,63.1 L736.9,59.0 L739.6,54.6 L743.9,50.3 L748.5,46.1 L751.5,43.9 L756.1,41.9 L760.6,41.6 L764.6,42.6 L768.0,44.1 L769.9,46.1 L771.4,48.3 L772.1,52.2 L772.4,55.5 L770.8,51.3 L770.1,47.9 L768.3,45.7 L766.0,44.4 L762.4,43.1 L758.3,42.9 L754.3,44.0 L750.4,46.0 L746.8,49.1 L742.4,53.3 L739.3,57.0 L736.7,61.4 L735.2,65.6 L734.3,69.3 L733.9,72.2 L734.1,75.0 L734.7,77.5 L735.9,79.8 L737.5,81.7 L739.5,83.2 L741.6,84.0 L744.7,85.0 L747.5,84.8 L751.1,84.0 L754.4,82.1 L757.6,80.2 L760.3,77.7 L762.9,75.2 L765.4,72.2 L767.9,68.6 L770.4,63.9 L772.3,59.8 L774.2,55.0 L775.6,51.7 L777.1,47.7 L778.7,41.8 L779.7,37.8 L780.6,33.0 L781.0,24.2 L781.0,15.3 L780.4,12.6 L778.7,9.8 L777.2,8.8 L775.7,8.8 L774.2,9.4 L773.2,10.4 L771.8,12.4 L770.7,14.7 L769.6,17.7 L769.0,20.4 L768.6,23.6 L767.9,27.8 L767.2,31.8 L766.8,35.4 L766.2,40.9 L766.1,46.3 L766.3,51.5 L766.5,56.3 L767.7,62.2 L768.1,65.4 L768.7,70.8 L769.4,74.3 L770.5,77.7 L771.8,80.1 L773.7,82.9 L776.2,84.8 L780.3,83.3 L783.7,80.4 L787.7,77.3 L790.5,74.5 L797.2,66.6" id="Shergold"></path>
</g>
</svg>
