<?xml version="1.0" encoding="UTF-8" standalone="no"?>
<svg width="1835px" height="1067px" viewBox="0 0 1835 1067" version="1.1" xmlns="http://www.w3.org/2000/svg" xmlns:xlink="http://www.w3.org/1999/xlink" xmlns:sketch="http://www.bohemiancoding.com/sketch/ns">
    <!-- Generator: Sketch 3.4.2 (15855) - http://www.bohemiancoding.com/sketch -->
    <title>hero</title>
    <desc>Created with Sketch.</desc>
    <defs></defs>
    <g id="Page-1" stroke="none" stroke-width="1" fill="none" fill-rule="evenodd" sketch:type="MSPage">
        <g id="hero" sketch:type="MSArtboardGroup" stroke="#F14E32" fill="#F14E32">
            <g id="work_1" sketch:type="MSLayerGroup" transform="translate(-110.000000, -42.000000)">
                <g id="Group" sketch:type="MSShapeGroup">
                    <path d="M97,23 L46,213 L166,227 L97,23 Z" id="Shape" opacity="0.0653568097"></path>
                    <path d="M97,23 L166,227 L214,10 L97,23 Z" id="Shape" opacity="0.0682719216"></path>
                    <path d="M214,10 L166,227 L300,189 L214,10 Z" id="Shape" opacity="0.15"></path>
                    <path d="M214,10 L300,189 L356,80 L214,10 Z" id="Shape" opacity="0.12"></path>
                    <path d="M214,10 L356,80 L501,54 L214,10 Z" id="Shape" opacity="0.169309701"></path>
                    <path d="M214,10 L501,54 L811,17 L214,10 Z" id="Shape" opacity="0.219974347"></path>
                    <path d="M356,80 L300,189 L528,207 L356,80 Z" id="Shape" opacity="0.335121269"></path>
                    <path d="M356,80 L528,207 L501,54 L356,80 Z" id="Shape" opacity="0.433477146"></path>
                    <path d="M501,54 L528,207 L586,103 L501,54 Z" id="Shape" opacity="0.330398787"></path>
                    <path d="M501,54 L586,103 L811,17 L501,54 Z" id="Shape" opacity="0.323577425"></path>
                    <path d="M586,103 L528,207 L634,255 L586,103 Z" id="Shape" opacity="0.451784049"></path>
                    <path d="M586,103 L634,255 L851,171 L586,103 Z" id="Shape" opacity="0.535447761"></path>
                    <path d="M586,103 L851,171 L811,17 L586,103 Z" id="Shape" opacity="0.326084422"></path>
                    <path d="M811,17 L851,171 L906,29 L811,17 Z" id="Shape" opacity="0.254372668"></path>
                    <path d="M906,29 L851,171 L981,233 L906,29 Z" id="Shape" opacity="0.360447761"></path>
                    <path d="M906,29 L981,233 L1046,0 L906,29 Z" id="Shape" opacity="0.32"></path>
                    <path d="M1046,0 L981,233 L1137,167 L1046,0 Z" id="Shape" opacity="0.423332556"></path>
                    <path d="M1046,0 L1137,167 L1221,106 L1046,0 Z" id="Shape" opacity="0.244228078"></path>
                    <path d="M1046,0 L1221,106 L1544,32 L1046,0 Z" id="Shape" opacity="0.193833955"></path>
                    <path d="M1221,106 L1137,167 L1203,184 L1221,106 Z" id="Shape" opacity="0.66"></path>
                    <path d="M1221,106 L1203,184 L1399,242 L1221,106 Z" id="Shape" opacity="0.45"></path>
                    <path d="M1221,106 L1399,242 L1422,108 L1221,106 Z" id="Shape" opacity="0.451842351"></path>
                    <path d="M1221,106 L1422,108 L1544,32 L1221,106 Z" id="Shape" opacity="0.269764459"></path>
                    <path d="M1422,108 L1399,242 L1483,169 L1422,108 Z" id="Shape" opacity="0.449277052"></path>
                    <path d="M1422,108 L1483,169 L1544,32 L1422,108 Z" id="Shape" opacity="0.368353545"></path>
                    <path d="M1544,32 L1483,169 L1699,146 L1544,32 Z" id="Shape" opacity="0.319729478"></path>
                    <path d="M1544,32 L1699,146 L1733,97 L1544,32 Z" id="Shape" opacity="0.32"></path>
                    <path d="M1544,32 L1733,97 L1801,88 L1544,32 Z" id="Shape" opacity="0.213211287"></path>
                    <path d="M1544,32 L1801,88 L1956,63 L1544,32 Z" id="Shape" opacity="0.253264925"></path>
                    <path d="M1733,97 L1699,146 L1801,88 L1733,97 Z" id="Shape" opacity="0.498659049"></path>
                    <path d="M1801,88 L1699,146 L1808,253 L1801,88 Z" id="Shape" opacity="0.613747668"></path>
                    <path d="M1801,88 L1808,253 L1971,194 L1801,88 Z" id="Shape" opacity="0.45"></path>
                    <path d="M1801,88 L1971,194 L1956,63 L1801,88 Z" id="Shape" opacity="0.32"></path>
                    <path d="M46,213 L0,364 L166,227 L46,213 Z" id="Shape" opacity="0.45860541"></path>
                    <path d="M166,227 L0,364 L230,316 L166,227 Z" id="Shape" opacity="0.76"></path>
                    <path d="M166,227 L230,316 L300,189 L166,227 Z" id="Shape" opacity="0.441872668"></path>
                    <path d="M300,189 L230,316 L336,304 L300,189 Z" id="Shape" opacity="0.597014925"></path>
                    <path d="M300,189 L336,304 L528,207 L300,189 Z" id="Shape" opacity="0.488456157"></path>
                    <path d="M528,207 L336,304 L491,320 L528,207 Z" id="Shape" opacity="0.76"></path>
                    <path d="M528,207 L491,320 L634,255 L528,207 Z" id="Shape" opacity="0.703708022"></path>
                    <path d="M634,255 L491,320 L619,385 L634,255 Z" id="Shape" opacity="0.656016791"></path>
                    <path d="M634,255 L619,385 L746,377 L634,255 Z" id="Shape" opacity="0.730235541"></path>
                    <path d="M634,255 L746,377 L851,171 L634,255 Z" id="Shape" opacity="0.644064832"></path>
                    <path d="M851,171 L746,377 L922,399 L851,171 Z" id="Shape" opacity="0.763467817"></path>
                    <path d="M851,171 L922,399 L981,233 L851,171 Z" id="Shape" opacity="0.621443563"></path>
                    <path d="M981,233 L922,399 L1076,318 L981,233 Z" id="Shape" opacity="0.76"></path>
                    <path d="M981,233 L1076,318 L1137,167 L981,233 Z" id="Shape" opacity="0.751865672"></path>
                    <path d="M1137,167 L1076,318 L1203,184 L1137,167 Z" id="Shape" opacity="0.76"></path>
                    <path d="M1203,184 L1076,318 L1294,405 L1203,184 Z" id="Shape" opacity="0.66"></path>
                    <path d="M1203,184 L1294,405 L1399,242 L1203,184 Z" id="Shape" opacity="0.76"></path>
                    <path d="M1399,242 L1294,405 L1410,339 L1399,242 Z" id="Shape" opacity="0.910447761"></path>
                    <path d="M1399,242 L1410,339 L1547,300 L1399,242 Z" id="Shape" opacity="0.836287313"></path>
                    <path d="M1399,242 L1547,300 L1483,169 L1399,242 Z" id="Shape" opacity="0.66"></path>
                    <path d="M1483,169 L1547,300 L1699,146 L1483,169 Z" id="Shape" opacity="0.45"></path>
                    <path d="M1699,146 L1547,300 L1661,388 L1699,146 Z" id="Shape" opacity="0.76"></path>
                    <path d="M1699,146 L1661,388 L1808,253 L1699,146 Z" id="Shape" opacity="0.66"></path>
                    <path d="M1808,253 L1661,388 L1708,447 L1808,253 Z" id="Shape" opacity="0.910914179"></path>
                    <path d="M1808,253 L1708,447 L1895,351 L1808,253 Z" id="Shape" opacity="0.79401819"></path>
                    <path d="M1808,253 L1895,351 L1971,194 L1808,253 Z" id="Shape" opacity="0.76"></path>
                    <path d="M1971,194 L1895,351 L1934,393 L1971,194 Z" id="Shape"></path>
                    <path d="M1971,194 L1934,393 L1992,538 L1971,194 Z" id="Shape" opacity="0.910447761"></path>
                    <path d="M0,364 L49,489 L230,316 L0,364 Z" id="Shape" opacity="0.918143657"></path>
                    <path d="M230,316 L49,489 L141,542 L230,316 Z" id="Shape" opacity="0.81798041"></path>
                    <path d="M230,316 L141,542 L397,545 L230,316 Z" id="Shape" opacity="0.9296875"></path>
                    <path d="M230,316 L397,545 L336,304 L230,316 Z" id="Shape" opacity="0.863164646"></path>
                    <path d="M336,304 L397,545 L491,320 L336,304 Z" id="Shape" opacity="0.784223414"></path>
                    <path d="M491,320 L397,545 L474,534 L491,320 Z" id="Shape" opacity="0.839668843"></path>
                    <path d="M491,320 L474,534 L619,385 L491,320 Z" id="Shape" opacity="0.715718284"></path>
                    <path d="M619,385 L474,534 L699,500 L619,385 Z" id="Shape" opacity="0.910914179"></path>
                    <path d="M619,385 L699,500 L746,377 L619,385 Z" id="Shape" opacity="0.955223881"></path>
                    <path d="M746,377 L699,500 L823,468 L746,377 Z" id="Shape" opacity="0.865671642"></path>
                    <path d="M746,377 L823,468 L922,399 L746,377 Z" id="Shape" opacity="0.814540578"></path>
                    <path d="M922,399 L823,468 L994,467 L922,399 Z" id="Shape" opacity="0.863164646"></path>
                    <path d="M922,399 L994,467 L1076,318 L922,399 Z" id="Shape" opacity="0.910447761"></path>
                    <path d="M1076,318 L994,467 L1086,488 L1076,318 Z" id="Shape" opacity="0.985074627"></path>
                    <path d="M1076,318 L1086,488 L1294,405 L1076,318 Z" id="Shape" opacity="0.855002332"></path>
                    <path d="M1294,405 L1086,488 L1194,550 L1294,405 Z" id="Shape" opacity="0.910447761"></path>
                    <path d="M1294,405 L1194,550 L1423,545 L1294,405 Z" id="Shape" opacity="0.940298507"></path>
                    <path d="M1294,405 L1423,545 L1410,339 L1294,405 Z" id="Shape"></path>
                    <path d="M1410,339 L1423,545 L1518,497 L1410,339 Z" id="Shape" opacity="0.955223881"></path>
                    <path d="M1410,339 L1518,497 L1547,300 L1410,339 Z" id="Shape" opacity="0.76"></path>
                    <path d="M1547,300 L1518,497 L1661,388 L1547,300 Z" id="Shape" opacity="0.910447761"></path>
                    <path d="M1661,388 L1518,497 L1708,447 L1661,388 Z" id="Shape"></path>
                    <path d="M1895,351 L1708,447 L1802,520 L1895,351 Z" id="Shape" opacity="0.940298507"></path>
                    <path d="M1895,351 L1802,520 L1934,393 L1895,351 Z" id="Shape"></path>
                    <path d="M1934,393 L1802,520 L1992,538 L1934,393 Z" id="Shape" opacity="0.858442164"></path>
                    <path d="M49,489 L13,687 L141,542 L49,489 Z" id="Shape" opacity="0.944146455"></path>
                    <path d="M141,542 L13,687 L165,642 L141,542 Z" id="Shape" opacity="0.85885028"></path>
                    <path d="M141,542 L165,642 L397,545 L141,542 Z" id="Shape" opacity="0.895522388"></path>
                    <path d="M397,545 L165,642 L347,707 L397,545 Z" id="Shape" opacity="0.796291978"></path>
                    <path d="M397,545 L347,707 L451,657 L397,545 Z" id="Shape"></path>
                    <path d="M397,545 L451,657 L474,534 L397,545 Z" id="Shape" opacity="0.802588619"></path>
                    <path d="M474,534 L451,657 L598,617 L474,534 Z" id="Shape" opacity="0.86951959"></path>
                    <path d="M474,534 L598,617 L699,500 L474,534 Z" id="Shape"></path>
                    <path d="M699,500 L598,617 L809,656 L699,500 Z" id="Shape" opacity="0.895522388"></path>
                    <path d="M699,500 L809,656 L823,468 L699,500 Z" id="Shape" opacity="0.924906716"></path>
                    <path d="M823,468 L809,656 L903,670 L823,468 Z" id="Shape" opacity="0.844391325"></path>
                    <path d="M823,468 L903,670 L994,467 L823,468 Z" id="Shape" opacity="0.940298507"></path>
                    <path d="M994,467 L903,670 L1125,602 L994,467 Z" id="Shape" opacity="0.796233675"></path>
                    <path d="M994,467 L1125,602 L1086,488 L994,467 Z" id="Shape" opacity="0.89167444"></path>
                    <path d="M1086,488 L1125,602 L1194,550 L1086,488 Z" id="Shape"></path>
                    <path d="M1194,550 L1125,602 L1297,653 L1194,550 Z" id="Shape"></path>
                    <path d="M1194,550 L1297,653 L1423,545 L1194,550 Z" id="Shape"></path>
                    <path d="M1423,545 L1297,653 L1340,710 L1423,545 Z" id="Shape"></path>
                    <path d="M1423,545 L1340,710 L1551,627 L1423,545 Z" id="Shape" opacity="0.89"></path>
                    <path d="M1423,545 L1551,627 L1518,497 L1423,545 Z" id="Shape"></path>
                    <path d="M1518,497 L1551,627 L1681,606 L1518,497 Z" id="Shape"></path>
                    <path d="M1518,497 L1681,606 L1708,447 L1518,497 Z" id="Shape" opacity="0.910447761"></path>
                    <path d="M1708,447 L1681,606 L1802,520 L1708,447 Z" id="Shape"></path>
                    <path d="M1802,520 L1681,606 L1807,603 L1802,520 Z" id="Shape" opacity="0.925373134"></path>
                    <path d="M1802,520 L1807,603 L1992,538 L1802,520 Z" id="Shape"></path>
                    <path d="M1992,538 L1807,603 L2051,656 L1992,538 Z" id="Shape" opacity="0.89"></path>
                    <path d="M13,687 L37,824 L165,642 L13,687 Z" id="Shape" opacity="0.7"></path>
                    <path d="M165,642 L37,824 L211,838 L165,642 Z" id="Shape" opacity="0.833780317"></path>
                    <path d="M165,642 L211,838 L347,707 L165,642 Z" id="Shape" opacity="0.7"></path>
                    <path d="M347,707 L211,838 L357,759 L347,707 Z" id="Shape" opacity="0.843924907"></path>
                    <path d="M347,707 L357,759 L451,657 L347,707 Z" id="Shape" opacity="0.7"></path>
                    <path d="M451,657 L357,759 L536,821 L451,657 Z" id="Shape" opacity="0.892140858"></path>
                    <path d="M451,657 L536,821 L598,617 L451,657 Z" id="Shape" opacity="0.755305504"></path>
                    <path d="M598,617 L536,821 L630,864 L598,617 Z" id="Shape" opacity="0.678229944"></path>
                    <path d="M598,617 L630,864 L809,656 L598,617 Z" id="Shape" opacity="0.809818097"></path>
                    <path d="M809,656 L630,864 L835,857 L809,656 Z" id="Shape" opacity="0.725454757"></path>
                    <path d="M809,656 L835,857 L903,670 L809,656 Z" id="Shape" opacity="0.914237407"></path>
                    <path d="M903,670 L835,857 L982,858 L903,670 Z" id="Shape" opacity="0.70417444"></path>
                    <path d="M903,670 L982,858 L1105,788 L903,670 Z" id="Shape" opacity="0.750116604"></path>
                    <path d="M903,670 L1105,788 L1125,602 L903,670 Z" id="Shape" opacity="0.891732743"></path>
                    <path d="M1125,602 L1105,788 L1202,793 L1125,602 Z" id="Shape"></path>
                    <path d="M1125,602 L1202,793 L1297,653 L1125,602 Z" id="Shape" opacity="0.89"></path>
                    <path d="M1297,653 L1202,793 L1340,710 L1297,653 Z" id="Shape" opacity="0.7"></path>
                    <path d="M1340,710 L1202,793 L1367,808 L1340,710 Z" id="Shape" opacity="0.75"></path>
                    <path d="M1340,710 L1367,808 L1502,782 L1340,710 Z" id="Shape" opacity="0.7"></path>
                    <path d="M1340,710 L1502,782 L1551,627 L1340,710 Z" id="Shape" opacity="0.75"></path>
                    <path d="M1551,627 L1502,782 L1661,809 L1551,627 Z" id="Shape" opacity="0.7"></path>
                    <path d="M1551,627 L1661,809 L1681,606 L1551,627 Z" id="Shape" opacity="0.89"></path>
                    <path d="M1681,606 L1661,809 L1833,761 L1681,606 Z" id="Shape" opacity="0.75"></path>
                    <path d="M1681,606 L1833,761 L1807,603 L1681,606 Z" id="Shape" opacity="0.89"></path>
                    <path d="M1807,603 L1833,761 L1973,781 L1807,603 Z" id="Shape"></path>
                    <path d="M1807,603 L1973,781 L2051,656 L1807,603 Z" id="Shape" opacity="0.75"></path>
                    <path d="M37,824 L1,904 L148,934 L37,824 Z" id="Shape" opacity="0.938083022"></path>
                    <path d="M37,824 L148,934 L211,838 L37,824 Z" id="Shape" opacity="0.843516791"></path>
                    <path d="M211,838 L148,934 L341,903 L211,838 Z" id="Shape" opacity="0.740846549"></path>
                    <path d="M211,838 L341,903 L357,759 L211,838 Z" id="Shape" opacity="0.903218284"></path>
                    <path d="M357,759 L341,903 L536,821 L357,759 Z" id="Shape" opacity="0.766382929"></path>
                    <path d="M536,821 L341,903 L511,1010 L536,821 Z" id="Shape" opacity="0.445487407"></path>
                    <path d="M536,821 L511,1010 L630,864 L536,821 Z" id="Shape" opacity="0.539295709"></path>
                    <path d="M630,864 L511,1010 L609,998 L630,864 Z" id="Shape" opacity="0.500874534"></path>
                    <path d="M630,864 L609,998 L851,963 L630,864 Z" id="Shape" opacity="0.632520989"></path>
                    <path d="M630,864 L851,963 L835,857 L630,864 Z" id="Shape" opacity="0.686742071"></path>
                    <path d="M835,857 L851,963 L982,858 L835,857 Z" id="Shape" opacity="0.768889925"></path>
                    <path d="M982,858 L851,963 L895,1013 L982,858 Z" id="Shape" opacity="0.533523787"></path>
                    <path d="M982,858 L895,1013 L1048,909 L982,858 Z" id="Shape" opacity="0.63"></path>
                    <path d="M982,858 L1048,909 L1105,788 L982,858 Z" id="Shape" opacity="0.664878731"></path>
                    <path d="M1105,788 L1048,909 L1198,920 L1105,788 Z" id="Shape" opacity="0.779034515"></path>
                    <path d="M1105,788 L1198,920 L1202,793 L1105,788 Z" id="Shape" opacity="0.709188433"></path>
                    <path d="M1202,793 L1198,920 L1367,808 L1202,793 Z" id="Shape" opacity="0.633453825"></path>
                    <path d="M1367,808 L1198,920 L1435,911 L1367,808 Z" id="Shape" opacity="0.772737873"></path>
                    <path d="M1367,808 L1435,911 L1502,782 L1367,808 Z" id="Shape" opacity="0.717817164"></path>
                    <path d="M1502,782 L1435,911 L1514,967 L1502,782 Z" id="Shape" opacity="0.63"></path>
                    <path d="M1502,782 L1514,967 L1642,915 L1502,782 Z" id="Shape" opacity="0.776119403"></path>
                    <path d="M1502,782 L1642,915 L1661,809 L1502,782 Z" id="Shape" opacity="0.747609608"></path>
                    <path d="M1661,809 L1642,915 L1785,907 L1661,809 Z" id="Shape" opacity="0.63"></path>
                    <path d="M1661,809 L1785,907 L1833,761 L1661,809 Z" id="Shape" opacity="0.844391325"></path>
                    <path d="M1833,761 L1785,907 L1973,781 L1833,761 Z" id="Shape" opacity="0.865671642"></path>
                    <path d="M1973,781 L1785,907 L1982,975 L1973,781 Z" id="Shape" opacity="0.63"></path>
                    <path d="M1,904 L36,1159 L148,934 L1,904 Z" id="Shape" opacity="0.185676306"></path>
                    <path d="M148,934 L36,1159 L140,1160 L148,934 Z" id="Shape" opacity="0.0915928172"></path>
                    <path d="M148,934 L140,1160 L299,1150 L148,934 Z" id="Shape" opacity="0.25"></path>
                    <path d="M148,934 L299,1150 L341,903 L148,934 Z" id="Shape" opacity="0.399071828"></path>
                    <path d="M341,903 L299,1150 L462,1054 L341,903 Z" id="Shape" opacity="0.357276119"></path>
                    <path d="M341,903 L462,1054 L511,1010 L341,903 Z" id="Shape" opacity="0.325384795"></path>
                    <path d="M511,1010 L462,1054 L694,1088 L511,1010 Z" id="Shape" opacity="0.444554571"></path>
                    <path d="M511,1010 L694,1088 L609,998 L511,1010 Z" id="Shape" opacity="0.17"></path>
                    <path d="M609,998 L694,1088 L851,963 L609,998 Z" id="Shape" opacity="0.459538246"></path>
                    <path d="M851,963 L694,1088 L773,1145 L851,963 Z" id="Shape" opacity="0.319729478"></path>
                    <path d="M851,963 L773,1145 L895,1013 L851,963 Z" id="Shape" opacity="0.226795709"></path>
                    <path d="M895,1013 L773,1145 L985,1118 L895,1013 Z" id="Shape" opacity="0.252798507"></path>
                    <path d="M895,1013 L985,1118 L1048,909 L895,1013 Z" id="Shape" opacity="0.383978545"></path>
                    <path d="M1048,909 L985,1118 L1143,1056 L1048,909 Z" id="Shape" opacity="0.17"></path>
                    <path d="M1048,909 L1143,1056 L1198,920 L1048,909 Z" id="Shape" opacity="0.44"></path>
                    <path d="M1198,920 L1143,1056 L1270,1091 L1198,920 Z" id="Shape" opacity="0.320429104"></path>
                    <path d="M1198,920 L1270,1091 L1392,1066 L1198,920 Z" id="Shape" opacity="0.17"></path>
                    <path d="M1198,920 L1392,1066 L1435,911 L1198,920 Z" id="Shape" opacity="0.403612407"></path>
                    <path d="M1435,911 L1392,1066 L1514,967 L1435,911 Z" id="Shape" opacity="0.44"></path>
                    <path d="M1514,967 L1392,1066 L1586,1131 L1514,967 Z" id="Shape" opacity="0.236065765"></path>
                    <path d="M1514,967 L1586,1131 L1663,1049 L1514,967 Z" id="Shape" opacity="0.17"></path>
                    <path d="M1514,967 L1663,1049 L1642,915 L1514,967 Z" id="Shape" opacity="0.451317631"></path>
                    <path d="M1642,915 L1663,1049 L1785,907 L1642,915 Z" id="Shape" opacity="0.44"></path>
                    <path d="M1785,907 L1663,1049 L1877,1101 L1785,907 Z" id="Shape" opacity="0.17"></path>
                    <path d="M1785,907 L1877,1101 L1982,975 L1785,907 Z" id="Shape" opacity="0.324444963"></path>
                    <path d="M1982,975 L1877,1101 L1967,1130 L1982,975 Z" id="Shape" opacity="0.174323694"></path>
                    <path d="M299,1150 L773,1145 L694,1088 L299,1150 Z" id="Shape" opacity="0.171408582"></path>
                    <path d="M299,1150 L694,1088 L462,1054 L299,1150 Z" id="Shape" opacity="0.225687966"></path>
                    <path d="M985,1118 L1586,1131 L1270,1091 L985,1118 Z" id="Shape" opacity="0.25"></path>
                    <path d="M985,1118 L1270,1091 L1143,1056 L985,1118 Z" id="Shape" opacity="0.314948694"></path>
                    <path d="M1270,1091 L1586,1131 L1392,1066 L1270,1091 Z" id="Shape" opacity="0.255538713"></path>
                    <path d="M1586,1131 L1967,1130 L1877,1101 L1586,1131 Z" id="Shape" opacity="0.25"></path>
                    <path d="M1586,1131 L1877,1101 L1663,1049 L1586,1131 Z" id="Shape" opacity="0.100163246"></path>
                </g>
            </g>
        </g>
    </g>
</svg>